<?xml version="1.0" standalone="no"?>
<!DOCTYPE svg PUBLIC "-//W3C//DTD SVG 20010904//EN"
 "http://www.w3.org/TR/2001/REC-SVG-20010904/DTD/svg10.dtd">
<svg version="1.0" xmlns="http://www.w3.org/2000/svg"
 width="48.000000pt" height="48.000000pt" viewBox="0 0 48.000000 48.000000"
 preserveAspectRatio="xMidYMid meet">

<g transform="translate(0.000000,48.000000) scale(0.100000,-0.100000)"
fill="#000000" stroke="none">
<path d="M70 408 c0 -38 35 -151 50 -160 16 -10 16 -14 2 -37 -20 -36 -9 -91
24 -122 20 -18 29 -21 42 -13 9 6 18 22 19 35 2 36 32 119 32 92 1 -13 5 -23
10 -23 5 0 12 -17 15 -37 11 -63 17 -73 36 -73 45 0 85 100 57 143 -13 21 -13
24 1 33 14 10 51 119 52 157 0 11 -8 17 -24 17 -41 0 -136 -118 -136 -170 0
-11 -4 -20 -10 -20 -5 0 -10 9 -10 19 0 50 -97 171 -137 171 -13 0 -23 -6 -23
-12z m116 -83 c8 -12 17 -32 19 -44 3 -19 -1 -21 -41 -21 -24 0 -44 5 -44 10
0 10 28 15 65 11 16 -1 17 1 7 11 -7 7 -27 12 -45 12 -26 -1 -27 0 -5 3 17 3
25 9 22 17 -3 8 -14 12 -25 9 -10 -3 -19 -1 -19 3 0 20 51 11 66 -11z m131 6
c-4 -16 1 -21 22 -24 20 -3 19 -4 -6 -3 -18 0 -38 -5 -45 -12 -10 -10 -9 -12
7 -11 37 4 65 -1 65 -11 0 -5 -20 -10 -44 -10 -40 0 -44 2 -41 21 5 24 32 69
41 69 4 0 4 -9 1 -19z m43 9 c0 -5 -8 -10 -17 -10 -15 0 -16 2 -3 10 19 12 20
12 20 0z m-200 -120 c0 -5 -5 -10 -11 -10 -5 0 -7 5 -4 10 3 6 8 10 11 10 2 0
4 -4 4 -10z m43 -7 c-4 -10 -2 -14 4 -10 10 6 -7 -68 -22 -98 -6 -12 2 41 11
75 7 22 6 24 -9 11 -19 -15 -22 -8 -7 20 13 23 32 26 23 2z m91 1 c24 -24 19
-40 -6 -18 -21 19 -21 19 -14 -1 13 -32 25 -87 18 -80 -12 12 -31 87 -25 101
7 18 8 17 27 -2z m41 6 c3 -5 1 -10 -4 -10 -6 0 -11 5 -11 10 0 6 2 10 4 10 3
0 8 -4 11 -10z m-175 -24 c0 -2 -7 -7 -16 -10 -8 -3 -12 -2 -9 4 6 10 25 14
25 6z m185 -6 c3 -5 2 -10 -4 -10 -5 0 -13 5 -16 10 -3 6 -2 10 4 10 5 0 13
-4 16 -10z m-176 -69 c0 -12 -3 -10 -9 4 -6 14 -9 15 -10 5 -1 -10 -4 -9 -9 5
-5 11 -6 24 -3 29 7 12 32 -23 31 -43z m175 16 c-3 -9 -10 -14 -15 -11 -5 3
-9 -1 -9 -8 0 -9 -3 -9 -10 2 -5 8 -9 22 -9 30 0 10 3 8 9 -5 5 -11 9 -14 9
-7 1 7 6 10 13 6 8 -5 9 -1 4 12 -5 14 -4 16 4 8 6 -6 8 -18 4 -27z"/>
</g>
</svg>
